REM DIRINDEX 1\2,1\3,1\4,1\5
REM DIRNAME "folder01","folder02","folder03","folder04","folder05"
TITLE ""
FILE "P1Q_t_0359-0368.mp3" MP3
  TRACK 01 AUDIO
    TITLE "3:cjc173_2000"
    INDEX 01 00:00:00
  TRACK 02 AUDIO
    TITLE "0:"
    INDEX 01 00:01:29
  TRACK 03 AUDIO
    TITLE "4:cjc173_2001"
    INDEX 01 00:01:51
  TRACK 04 AUDIO
    TITLE "0:"
    INDEX 01 00:05:53
  TRACK 05 AUDIO
    TITLE "5:cjc173_2002"
    INDEX 01 00:05:72
  TRACK 06 AUDIO
    TITLE "0:"
    INDEX 01 00:10:64
  TRACK 07 AUDIO
    TITLE "3:cjc173_2003"
    INDEX 01 00:11:36
  TRACK 08 AUDIO
    TITLE "0:"
    INDEX 01 00:12:70
  TRACK 09 AUDIO
    TITLE "4:cjc173_2004"
    INDEX 01 00:13:17
  TRACK 10 AUDIO
    TITLE "0:"
    INDEX 01 00:16:52
  TRACK 11 AUDIO
    TITLE "5:cjc173_2005"
    INDEX 01 00:17:05
  TRACK 12 AUDIO
    TITLE "0:"
    INDEX 01 00:22:31
  TRACK 13 AUDIO
    TITLE "3:cjc173_2006"
    INDEX 01 00:23:07
  TRACK 14 AUDIO
    TITLE "0:"
    INDEX 01 00:24:44
  TRACK 15 AUDIO
    TITLE "4:cjc173_2007"
    INDEX 01 00:24:62
  TRACK 16 AUDIO
    TITLE "0:"
    INDEX 01 00:30:72
  TRACK 17 AUDIO
    TITLE "5:cjc173_2008"
    INDEX 01 00:31:19
  TRACK 18 AUDIO
    TITLE "0:"
    INDEX 01 00:36:67
  TRACK 19 AUDIO
    TITLE "3:cjc173_2009"
    INDEX 01 00:37:39
  TRACK 20 AUDIO
    TITLE "0:"
    INDEX 01 00:38:44
  TRACK 21 AUDIO
    TITLE "4:cjc173_2010"
    INDEX 01 00:38:66
  TRACK 22 AUDIO
    TITLE "0:"
    INDEX 01 00:40:04
  TRACK 23 AUDIO
    TITLE "5:cjc173_2011"
    INDEX 01 00:40:24
  TRACK 24 AUDIO
    TITLE "0:"
    INDEX 01 00:45:23
  TRACK 25 AUDIO
    TITLE "3:cjc173_2012"
    INDEX 01 00:46:01
  TRACK 26 AUDIO
    TITLE "0:"
    INDEX 01 00:47:14
  TRACK 27 AUDIO
    TITLE "4:cjc173_2013"
    INDEX 01 00:47:35
  TRACK 28 AUDIO
    TITLE "0:"
    INDEX 01 00:49:60
  TRACK 29 AUDIO
    TITLE "5:cjc173_2014"
    INDEX 01 00:50:04
  TRACK 30 AUDIO
    TITLE "0:"
    INDEX 01 00:55:35
  TRACK 31 AUDIO
    TITLE "3:cjc173_2015"
    INDEX 01 00:56:05
  TRACK 32 AUDIO
    TITLE "0:"
    INDEX 01 00:57:30
  TRACK 33 AUDIO
    TITLE "4:cjc173_2016"
    INDEX 01 00:57:51
  TRACK 34 AUDIO
    TITLE "0:"
    INDEX 01 01:01:26
  TRACK 35 AUDIO
    TITLE "5:cjc173_2017"
    INDEX 01 01:01:45
  TRACK 36 AUDIO
    TITLE "0:"
    INDEX 01 01:06:66
  TRACK 37 AUDIO
    TITLE "3:cjc173_2018"
    INDEX 01 01:07:38
  TRACK 38 AUDIO
    TITLE "0:"
    INDEX 01 01:08:47
  TRACK 39 AUDIO
    TITLE "4:cjc173_2019"
    INDEX 01 01:08:69
  TRACK 40 AUDIO
    TITLE "0:"
    INDEX 01 01:10:09
  TRACK 41 AUDIO
    TITLE "5:cjc173_2020"
    INDEX 01 01:10:31
  TRACK 42 AUDIO
    TITLE "0:"
    INDEX 01 01:15:67
  TRACK 43 AUDIO
    TITLE "3:cjc173_2021"
    INDEX 01 01:16:39
  TRACK 44 AUDIO
    TITLE "0:"
    INDEX 01 01:17:58
  TRACK 45 AUDIO
    TITLE "4:cjc173_2022"
    INDEX 01 01:18:06
  TRACK 46 AUDIO
    TITLE "0:"
    INDEX 01 01:19:04
  TRACK 47 AUDIO
    TITLE "5:cjc173_2023"
    INDEX 01 01:19:27
  TRACK 48 AUDIO
    TITLE "0:"
    INDEX 01 01:23:31
  TRACK 49 AUDIO
    TITLE "3:cjc173_2024"
    INDEX 01 01:24:03
  TRACK 50 AUDIO
    TITLE "0:"
    INDEX 01 01:25:34
  TRACK 51 AUDIO
    TITLE "4:cjc173_2025"
    INDEX 01 01:25:58
  TRACK 52 AUDIO
    TITLE "0:"
    INDEX 01 01:28:50
  TRACK 53 AUDIO
    TITLE "5:cjc173_2026"
    INDEX 01 01:28:70
  TRACK 54 AUDIO
    TITLE "0:"
    INDEX 01 01:34:29
  TRACK 55 AUDIO
    TITLE "3:cjc173_2027"
    INDEX 01 01:35:01
  TRACK 56 AUDIO
    TITLE "0:"
    INDEX 01 01:35:72
  TRACK 57 AUDIO
    TITLE "4:cjc173_2028"
    INDEX 01 01:36:18
  TRACK 58 AUDIO
    TITLE "0:"
    INDEX 01 01:37:22
  TRACK 59 AUDIO
    TITLE "5:cjc173_2029"
    INDEX 01 01:37:41
  TRACK 60 AUDIO
    TITLE "0:"
    INDEX 01 01:41:37
